<?xml version="1.0" encoding="UTF-8"?>
<svg id="Layer_1" data-name="Layer 1" xmlns="http://www.w3.org/2000/svg" xmlns:xlink="http://www.w3.org/1999/xlink" viewBox="0 0 88.01 70.39">
  <defs>
    <style>
      .cls-1 {
        clip-path: url(#clippath);
      }

      .cls-2, .cls-3 {
        fill: #00b31a;
      }

      .cls-4 {
        fill: #ff8b00;
      }

      .cls-4, .cls-5, .cls-6, .cls-7, .cls-8, .cls-3 {
        stroke-width: 0px;
      }

      .cls-5 {
        fill: #f49600;
        opacity: .59;
      }

      .cls-6 {
        fill: #ff6900;
      }

      .cls-7 {
        fill: #ffc700;
      }

      .cls-8 {
        fill: #fff;
        opacity: .4;
      }
    </style>
    <clipPath id="clippath">
      <path class="cls-3" d="M85.32,12.61L65.43,1.13c-2.61-1.51-5.82-1.51-8.43,0l-12.93,7.47-.17-.1-.06.03L31.01,1.13c-2.61-1.51-5.82-1.51-8.43,0L2.7,12.61c-1.67.96-2.7,2.74-2.7,4.67v21.83c0,3.71,1.98,7.14,5.19,8.99l38.71,22.28,38.92-22.28c3.21-1.86,5.19-5.28,5.19-8.99v-21.83c0-1.93-1.03-3.71-2.7-4.67Z"/>
    </clipPath>
  </defs>
  <g id="logo">
    <g>
      <path class="cls-2" d="M85.32,12.61L65.43,1.13c-2.61-1.51-5.82-1.51-8.43,0l-12.93,7.47-.17-.1-.06.03L31.01,1.13c-2.61-1.51-5.82-1.51-8.43,0L2.7,12.61c-1.67.96-2.7,2.74-2.7,4.67v21.83c0,3.71,1.98,7.14,5.19,8.99l38.71,22.28,38.92-22.28c3.21-1.86,5.19-5.28,5.19-8.99v-21.83c0-1.93-1.03-3.71-2.7-4.67Z"/>
      <g class="cls-1">
        <g>
          <polygon class="cls-4" points="26.8 60.58 0 45.11 0 14.17 26.8 -1.3 53.6 14.17 53.6 45.11 26.8 60.58"/>
          <polygon class="cls-6" points="61.22 60.58 34.42 45.11 34.42 14.17 61.22 -1.3 88.01 14.17 88.01 45.11 61.22 60.58"/>
          <polygon class="cls-7" points="43.9 70.39 17.1 54.92 17.1 23.97 43.9 8.5 70.7 23.97 70.7 54.92 43.9 70.39"/>
          <polygon class="cls-5" points="88.01 45.11 43.9 70.39 43.9 39.44 88.01 14.17 88.01 45.11"/>
          <polygon class="cls-8" points="-.21 45.11 43.9 70.39 43.9 39.44 -.21 14.17 -.21 45.11"/>
        </g>
      </g>
    </g>
  </g>
</svg>